{
  "accessors": [
    {
      "bufferView": 2,
      "componentType": 5126,
      "count": 65532,
      "max": [
        1.599511981010437,
        -768.4960327148438,
        0.6155359745025635
      ],
      "min": [
        0.9975929856300354,
        -769.1063842773438,
        0.3218410015106201
      ],
      "type": "VEC3"
    },
    {
      "bufferView": 2,
      "byteOffset": 786384,
      "componentType": 5126,
      "count": 65532,
      "max": [
        0.8942729234695435,
        0.9946917295455933,
        0.13297666609287262
      ],
      "min": [
        -0.9940801858901978,
        -0.8100849986076355,
        -0.9999945759773254
      ],
      "type": "VEC3"
    },
    {
      "bufferView": 1,
      "componentType": 5126,
      "count": 65532,
      "max": [
        0.9421859979629517,
        0.990559995174408
      ],
      "min": [
        0.00584500003606081,
        0.06900999695062637
      ],
      "type": "VEC2"
    },
    {
      "bufferView": 0,
      "componentType": 5125,
      "count": 346011,
      "type": "SCALAR"
    },
    {
      "bufferView": 2,
      "byteOffset": 1572768,
      "componentType": 5126,
      "count": 65532,
      "max": [
        1.6260459423065186,
        -768.5687255859375,
        0.9287440180778503
      ],
      "min": [
        1.241894006729126,
        -769.1368408203125,
        0.3283340036869049
      ],
      "type": "VEC3"
    },
    {
      "bufferView": 2,
      "byteOffset": 2359152,
      "componentType": 5126,
      "count": 65532,
      "max": [
        0.999973475933075,
        0.957451581954956,
        0.8846328854560852
      ],
      "min": [
        -0.30095598101615906,
        -0.9233086109161377,
        -0.977961003780365
      ],
      "type": "VEC3"
    },
    {
      "bufferView": 1,
      "byteOffset": 524256,
      "componentType": 5126,
      "count": 65532,
      "max": [
        0.9758700132369995,
        0.9223690032958984
      ],
      "min": [
        0.10550200194120407,
        0.03860099986195564
      ],
      "type": "VEC2"
    },
    {
      "bufferView": 0,
      "byteOffset": 1384044,
      "componentType": 5125,
      "count": 340770,
      "type": "SCALAR"
    },
    {
      "bufferView": 2,
      "byteOffset": 3145536,
      "componentType": 5126,
      "count": 65532,
      "max": [
        1.573341965675354,
        -768.6707763671875,
        0.952875018119812
      ],
      "min": [
        0.9945570230484009,
        -769.1509399414063,
        0.47183099389076233
      ],
      "type": "VEC3"
    },
    {
      "bufferView": 2,
      "byteOffset": 3931920,
      "componentType": 5126,
      "count": 65532,
      "max": [
        0.8742344975471497,
        0.3900328278541565,
        0.9943222403526306
      ],
      "min": [
        -0.9985759258270264,
        -0.9995631575584412,
        -0.6506779789924622
      ],
      "type": "VEC3"
    },
    {
      "bufferView": 1,
      "byteOffset": 1048512,
      "componentType": 5126,
      "count": 65532,
      "max": [
        0.9844849705696106,
        0.9891610145568848
      ],
      "min": [
        0.02039800025522709,
        9.999999747378752e-06
      ],
      "type": "VEC2"
    },
    {
      "bufferView": 0,
      "byteOffset": 2747124,
      "componentType": 5125,
      "count": 337140,
      "type": "SCALAR"
    },
    {
      "bufferView": 2,
      "byteOffset": 4718304,
      "componentType": 5126,
      "count": 65532,
      "max": [
        1.4729410409927368,
        -768.4710693359375,
        0.9655500054359436
      ],
      "min": [
        1.0042510032653809,
        -769.1519775390625,
        0.32318800687789917
      ],
      "type": "VEC3"
    },
    {
      "bufferView": 2,
      "byteOffset": 5504688,
      "componentType": 5126,
      "count": 65532,
      "max": [
        0.9994788765907288,
        1.0,
        0.9999998807907104
      ],
      "min": [
        -0.9988431930541992,
        -1.0,
        -0.995598316192627
      ],
      "type": "VEC3"
    },
    {
      "bufferView": 1,
      "byteOffset": 1572768,
      "componentType": 5126,
      "count": 65532,
      "max": [
        1.0,
        0.9909980297088623
      ],
      "min": [
        3.000000106112566e-06,
        0.002136999974027276
      ],
      "type": "VEC2"
    },
    {
      "bufferView": 0,
      "byteOffset": 4095684,
      "componentType": 5125,
      "count": 331872,
      "type": "SCALAR"
    },
    {
      "bufferView": 2,
      "byteOffset": 6291072,
      "componentType": 5126,
      "count": 65532,
      "max": [
        1.396386981010437,
        -768.4703369140625,
        0.9399330019950867
      ],
      "min": [
        0.9938380122184753,
        -768.8765258789063,
        0.36396801471710205
      ],
      "type": "VEC3"
    },
    {
      "bufferView": 2,
      "byteOffset": 7077456,
      "componentType": 5126,
      "count": 65532,
      "max": [
        0.999997615814209,
        0.9920422434806824,
        0.9609244465827942
      ],
      "min": [
        -0.9999943971633911,
        -0.6584872603416443,
        -0.8616873621940613
      ],
      "type": "VEC3"
    },
    {
      "bufferView": 1,
      "byteOffset": 2097024,
      "componentType": 5126,
      "count": 65532,
      "max": [
        0.9704639911651611,
        0.9871479868888855
      ],
      "min": [
        0.0025220001116394997,
        0.014713999815285206
      ],
      "type": "VEC2"
    },
    {
      "bufferView": 0,
      "byteOffset": 5423172,
      "componentType": 5125,
      "count": 340320,
      "type": "SCALAR"
    },
    {
      "bufferView": 2,
      "byteOffset": 7863840,
      "componentType": 5126,
      "count": 65532,
      "max": [
        1.625923991203308,
        -768.466552734375,
        0.9493820071220398
      ],
      "min": [
        1.0465890169143677,
        -768.8740844726563,
        0.32383298873901367
      ],
      "type": "VEC3"
    },
    {
      "bufferView": 2,
      "byteOffset": 8650224,
      "componentType": 5126,
      "count": 65532,
      "max": [
        0.9998018145561218,
        1.0,
        0.99837327003479
      ],
      "min": [
        -0.9993517398834229,
        -0.9972849488258362,
        -0.9999932050704956
      ],
      "type": "VEC3"
    },
    {
      "bufferView": 1,
      "byteOffset": 2621280,
      "componentType": 5126,
      "count": 65532,
      "max": [
        1.0,
        0.9895179867744446
      ],
      "min": [
        1.4000000192027073e-05,
        0.0008510000188834965
      ],
      "type": "VEC2"
    },
    {
      "bufferView": 0,
      "byteOffset": 6784452,
      "componentType": 5125,
      "count": 326193,
      "type": "SCALAR"
    },
    {
      "bufferView": 2,
      "byteOffset": 9436608,
      "componentType": 5126,
      "count": 65532,
      "max": [
        1.6259640455245972,
        -768.466552734375,
        0.965453028678894
      ],
      "min": [
        1.0108599662780762,
        -769.1173706054688,
        0.32185098528862
      ],
      "type": "VEC3"
    },
    {
      "bufferView": 2,
      "byteOffset": 10222992,
      "componentType": 5126,
      "count": 65532,
      "max": [
        0.999997615814209,
        1.0,
        0.9996749758720398
      ],
      "min": [
        -0.9993517398834229,
        -1.0,
        -0.9999793171882629
      ],
      "type": "VEC3"
    },
    {
      "bufferView": 1,
      "byteOffset": 3145536,
      "componentType": 5126,
      "count": 65532,
      "max": [
        1.0,
        0.9873189926147461
      ],
      "min": [
        0.0003260000084992498,
        0.0023330000694841146
      ],
      "type": "VEC2"
    },
    {
      "bufferView": 0,
      "byteOffset": 8089224,
      "componentType": 5125,
      "count": 198174,
      "type": "SCALAR"
    },
    {
      "bufferView": 2,
      "byteOffset": 11009376,
      "componentType": 5126,
      "count": 38890,
      "max": [
        1.616441011428833,
        -768.4881591796875,
        0.9651920199394226
      ],
      "min": [
        0.9938380122184753,
        -769.1519165039063,
        0.32205599546432495
      ],
      "type": "VEC3"
    },
    {
      "bufferView": 2,
      "byteOffset": 11476056,
      "componentType": 5126,
      "count": 38890,
      "max": [
        0.9982261061668396,
        1.0,
        1.0
      ],
      "min": [
        -0.9999943971633911,
        -1.0,
        -1.0
      ],
      "type": "VEC3"
    },
    {
      "bufferView": 1,
      "byteOffset": 3669792,
      "componentType": 5126,
      "count": 38890,
      "max": [
        1.0,
        0.9915879964828491
      ],
      "min": [
        0.00046400001156143844,
        0.00496299983933568
      ],
      "type": "VEC2"
    },
    {
      "bufferView": 0,
      "byteOffset": 8881920,
      "componentType": 5125,
      "count": 103995,
      "type": "SCALAR"
    }
  ],
  "asset": {
    "extras": {
      "author": "Moshe Caine (https://sketchfab.com/mosheca)",
      "license": "CC-BY-4.0 (http://creativecommons.org/licenses/by/4.0/)",
      "source": "https://sketchfab.com/3d-models/apple-da0cfd4c6a4e41c5aaf06797b463235b",
      "title": "Apple"
    },
    "generator": "Sketchfab-12.68.0",
    "version": "2.0"
  },
  "bufferViews": [
    {
      "buffer": 0,
      "byteLength": 9297900,
      "name": "floatBufferViews",
      "target": 34963
    },
    {
      "buffer": 0,
      "byteLength": 3980912,
      "byteOffset": 9297900,
      "byteStride": 8,
      "name": "floatBufferViews",
      "target": 34962
    },
    {
      "buffer": 0,
      "byteLength": 11942736,
      "byteOffset": 13278812,
      "byteStride": 12,
      "name": "floatBufferViews",
      "target": 34962
    }
  ],
  "buffers": [
    {
      "byteLength": 25221548,
      "uri": "scene.bin"
    }
  ],
  "images": [
    {
      "uri": "textures/material_0_baseColor.jpeg"
    }
  ],
  "materials": [
    {
      "doubleSided": true,
      "name": "material_0",
      "pbrMetallicRoughness": {
        "baseColorTexture": {
          "index": 0
        },
        "metallicFactor": 0.0,
        "roughnessFactor": 0.45772303595206393
      }
    }
  ],
  "meshes": [
    {
      "name": "Object_0",
      "primitives": [
        {
          "attributes": {
            "NORMAL": 1,
            "POSITION": 0,
            "TEXCOORD_0": 2
          },
          "indices": 3,
          "material": 0,
          "mode": 4
        }
      ]
    },
    {
      "name": "Object_1",
      "primitives": [
        {
          "attributes": {
            "NORMAL": 5,
            "POSITION": 4,
            "TEXCOORD_0": 6
          },
          "indices": 7,
          "material": 0,
          "mode": 4
        }
      ]
    },
    {
      "name": "Object_2",
      "primitives": [
        {
          "attributes": {
            "NORMAL": 9,
            "POSITION": 8,
            "TEXCOORD_0": 10
          },
          "indices": 11,
          "material": 0,
          "mode": 4
        }
      ]
    },
    {
      "name": "Object_3",
      "primitives": [
        {
          "attributes": {
            "NORMAL": 13,
            "POSITION": 12,
            "TEXCOORD_0": 14
          },
          "indices": 15,
          "material": 0,
          "mode": 4
        }
      ]
    },
    {
      "name": "Object_4",
      "primitives": [
        {
          "attributes": {
            "NORMAL": 17,
            "POSITION": 16,
            "TEXCOORD_0": 18
          },
          "indices": 19,
          "material": 0,
          "mode": 4
        }
      ]
    },
    {
      "name": "Object_5",
      "primitives": [
        {
          "attributes": {
            "NORMAL": 21,
            "POSITION": 20,
            "TEXCOORD_0": 22
          },
          "indices": 23,
          "material": 0,
          "mode": 4
        }
      ]
    },
    {
      "name": "Object_6",
      "primitives": [
        {
          "attributes": {
            "NORMAL": 25,
            "POSITION": 24,
            "TEXCOORD_0": 26
          },
          "indices": 27,
          "material": 0,
          "mode": 4
        }
      ]
    },
    {
      "name": "Object_7",
      "primitives": [
        {
          "attributes": {
            "NORMAL": 29,
            "POSITION": 28,
            "TEXCOORD_0": 30
          },
          "indices": 31,
          "material": 0,
          "mode": 4
        }
      ]
    }
  ],
  "nodes": [
    {
      "children": [
        1
      ],
      "matrix": [
        0.019548825919628143,
        0.2677352428436277,
        0.9632942080497743,
        0.0,
        -0.46300339698791504,
        0.8563649654388428,
        -0.2286195755004881,
        0.0,
        -0.8861408829689026,
        -0.44153925776481634,
        0.14070326089858998,
        0.0,
        -354.1065673828125,
        658.9584960937499,
        591.6920166015626,
        1.0
      ],
      "name": "Sketchfab_model"
    },
    {
      "children": [
        2,
        3,
        4,
        5,
        6,
        7,
        8,
        9
      ],
      "name": "apple2.obj.cleaner.materialmerger.gles"
    },
    {
      "mesh": 0,
      "name": "Object_2"
    },
    {
      "mesh": 1,
      "name": "Object_3"
    },
    {
      "mesh": 2,
      "name": "Object_4"
    },
    {
      "mesh": 3,
      "name": "Object_5"
    },
    {
      "mesh": 4,
      "name": "Object_6"
    },
    {
      "mesh": 5,
      "name": "Object_7"
    },
    {
      "mesh": 6,
      "name": "Object_8"
    },
    {
      "mesh": 7,
      "name": "Object_9"
    }
  ],
  "samplers": [
    {
      "magFilter": 9729,
      "minFilter": 9987,
      "wrapS": 10497,
      "wrapT": 10497
    }
  ],
  "scene": 0,
  "scenes": [
    {
      "name": "Sketchfab_Scene",
      "nodes": [
        0
      ]
    }
  ],
  "textures": [
    {
      "sampler": 0,
      "source": 0
    }
  ]
}
